<svg width="24" height="23" viewBox="0 0 24 23" fill="none" xmlns="http://www.w3.org/2000/svg">
<rect width="22.9091" height="22.4801" rx="11.24" transform="matrix(1 0 0 -1 0.77272 23.0071)" fill="#C40000"/>
<path fill-rule="evenodd" clip-rule="evenodd" d="M8.45401 9.91531C8.50626 9.96769 8.56834 10.0093 8.63667 10.0376C8.70501 10.066 8.77827 10.0806 8.85226 10.0806C8.92625 10.0806 8.99951 10.066 9.06785 10.0376C9.13619 10.0093 9.19826 9.96769 9.25051 9.91531L12.2273 6.93744L15.204 9.91531C15.3096 10.0209 15.4529 10.0803 15.6023 10.0803C15.7516 10.0803 15.8949 10.0209 16.0005 9.91531C16.1061 9.80969 16.1655 9.66643 16.1655 9.51706C16.1655 9.36769 16.1061 9.22443 16.0005 9.11881L12.6255 5.74381C12.5733 5.69143 12.5112 5.64987 12.4428 5.62151C12.3745 5.59315 12.3013 5.57856 12.2273 5.57856C12.1533 5.57856 12.08 5.59315 12.0117 5.62151C11.9433 5.64987 11.8813 5.69143 11.829 5.74381L8.45401 9.11881C8.40163 9.17106 8.36007 9.23314 8.33171 9.30147C8.30335 9.36981 8.28876 9.44307 8.28876 9.51706C8.28876 9.59105 8.30335 9.66431 8.33171 9.73265C8.36007 9.80099 8.40163 9.86306 8.45401 9.91531Z" fill="white"/>
<path fill-rule="evenodd" clip-rule="evenodd" d="M12.2273 17.9546C12.3764 17.9546 12.5195 17.8953 12.625 17.7898C12.7305 17.6843 12.7898 17.5413 12.7898 17.3921V7.26709C12.7898 7.11791 12.7305 6.97483 12.625 6.86934C12.5195 6.76385 12.3764 6.70459 12.2273 6.70459C12.0781 6.70459 11.935 6.76385 11.8295 6.86934C11.724 6.97483 11.6648 7.11791 11.6648 7.26709V17.3921C11.6648 17.5413 11.724 17.6843 11.8295 17.7898C11.935 17.8953 12.0781 17.9546 12.2273 17.9546Z" fill="white"/>
</svg>
