<svg width="24" height="23" viewBox="0 0 24 23" fill="none" xmlns="http://www.w3.org/2000/svg">
<rect x="0.181824" y="0.5271" width="22.9091" height="22.4801" rx="11.24" fill="#0B8520"/>
<path fill-rule="evenodd" clip-rule="evenodd" d="M7.86312 13.6189C7.91537 13.5665 7.97744 13.5249 8.04578 13.4966C8.11412 13.4682 8.18738 13.4536 8.26137 13.4536C8.33535 13.4536 8.40862 13.4682 8.47695 13.4966C8.54529 13.5249 8.60736 13.5665 8.65962 13.6189L11.6364 16.5967L14.6131 13.6189C14.7187 13.5132 14.862 13.4539 15.0114 13.4539C15.1607 13.4539 15.304 13.5132 15.4096 13.6189C15.5152 13.7245 15.5746 13.8677 15.5746 14.0171C15.5746 14.1665 15.5152 14.3097 15.4096 14.4154L12.0346 17.7904C11.9824 17.8428 11.9203 17.8843 11.852 17.9127C11.7836 17.941 11.7104 17.9556 11.6364 17.9556C11.5624 17.9556 11.4891 17.941 11.4208 17.9127C11.3524 17.8843 11.2904 17.8428 11.2381 17.7904L7.86312 14.4154C7.81073 14.3631 7.76917 14.301 7.74081 14.2327C7.71246 14.1644 7.69786 14.0911 7.69786 14.0171C7.69786 13.9431 7.71246 13.8699 7.74081 13.8015C7.76917 13.7332 7.81073 13.6711 7.86312 13.6189Z" fill="white"/>
<path fill-rule="evenodd" clip-rule="evenodd" d="M11.6364 5.57959C11.7856 5.57959 11.9286 5.63885 12.0341 5.74434C12.1396 5.84983 12.1989 5.99291 12.1989 6.14209V16.2671C12.1989 16.4163 12.1396 16.5593 12.0341 16.6648C11.9286 16.7703 11.7856 16.8296 11.6364 16.8296C11.4872 16.8296 11.3441 16.7703 11.2386 16.6648C11.1331 16.5593 11.0739 16.4163 11.0739 16.2671V6.14209C11.0739 5.99291 11.1331 5.84983 11.2386 5.74434C11.3441 5.63885 11.4872 5.57959 11.6364 5.57959Z" fill="white"/>
</svg>
